<svg fill="none" height="22" viewBox="0 0 89 22" width="89" xmlns="http://www.w3.org/2000/svg">
  <path
    d="M9.69324 0.50162C9.68384 0.50225 9.67473 0.50344 9.66561 0.5047C7.02592 0.771633 4.57944 1.98749 2.79561 3.91898C1.01178 5.85047 0.016237 8.36155 0 10.9704H0C0.0204542 13.7828 1.17633 16.472 3.21339 18.4466C5.25045 20.4212 8.00188 21.5195 10.8625 21.4998V21.4998C13.723 21.5194 16.4744 20.4212 18.5113 18.4466C20.5483 16.4719 21.704 13.7827 21.7243 10.9704V10.9704C21.7082 8.36162 20.7128 5.85059 18.929 3.91909C17.1453 1.9876 14.699 0.771704 12.0594 0.5047V0.5047C12.0499 0.50344 12.0408 0.50225 12.0317 0.50162C12.0166 0.500407 12.0012 0.4998 11.9855 0.4998C11.9065 0.495155 11.8288 0.521026 11.7689 0.5719V0.5719C11.7442 0.596777 11.7251 0.626495 11.7128 0.659119C11.7006 0.691744 11.6954 0.726543 11.6977 0.76125V0.76125V2.12023C11.6958 2.15568 11.7077 2.19052 11.7309 2.21766C11.7542 2.2448 11.7871 2.2622 11.823 2.26632V2.26632C14.024 2.48086 16.0664 3.48889 17.5563 5.09609C19.0463 6.70329 19.8783 8.79586 19.892 10.9704V10.9704C19.875 13.3082 18.9142 15.5437 17.2209 17.1852C15.5276 18.8266 13.2404 19.7396 10.8625 19.7233V19.7233C8.48451 19.7396 6.19729 18.8267 4.50391 17.1853C2.81054 15.5438 1.84968 13.3083 1.83269 10.9704V10.9704C1.84636 8.7959 2.67833 6.70335 4.16821 5.09616C5.6581 3.48896 7.7004 2.48091 9.90143 2.26632V2.26632C9.93731 2.26217 9.97024 2.24478 9.99356 2.21765C10.0169 2.19053 10.0288 2.1557 10.027 2.12023V2.12023V2.11932L10.0267 0.76132C10.029 0.726665 10.0239 0.691915 10.0116 0.659345C9.99933 0.626776 9.9802 0.59712 9.95547 0.57232V0.57232C9.8957 0.521367 9.81807 0.495349 9.73909 0.4998V0.4998C9.72336 0.4998 9.70798 0.50043 9.69324 0.50162ZM71.0605 4.15947V5.502H68.8185C68.7771 5.49654 68.735 5.50048 68.6954 5.5135C68.6557 5.52653 68.6197 5.5483 68.59 5.57715C68.5602 5.606 68.5376 5.64115 68.5238 5.67993C68.5101 5.7187 68.5055 5.76006 68.5105 5.80083V5.80083V6.91299C68.5055 6.95375 68.5101 6.99509 68.5238 7.03385C68.5376 7.07261 68.5602 7.10775 68.59 7.13657C68.6197 7.16539 68.6558 7.18714 68.6954 7.20013C68.735 7.21313 68.7771 7.21703 68.8185 7.21154H71.0609V15.7678C71.056 15.8086 71.0607 15.85 71.0745 15.8888C71.0884 15.9276 71.1111 15.9628 71.141 15.9916C71.1708 16.0204 71.2069 16.0422 71.2466 16.0552C71.2862 16.0682 71.3284 16.0721 71.3699 16.0667H72.5824C72.6239 16.0722 72.666 16.0683 72.7057 16.0553C72.7454 16.0422 72.7815 16.0205 72.8113 15.9916C72.8411 15.9628 72.8638 15.9276 72.8776 15.8888C72.8914 15.85 72.896 15.8086 72.8911 15.7678V15.7678V7.21154H76.3636C76.405 7.21703 76.4471 7.21313 76.4867 7.20013C76.5263 7.18714 76.5623 7.16539 76.5921 7.13657C76.6218 7.10775 76.6445 7.07261 76.6582 7.03385C76.672 6.99509 76.6766 6.95375 76.6716 6.91299V6.91299V5.80083C76.6766 5.76006 76.672 5.7187 76.6582 5.67993C76.6445 5.64115 76.6219 5.606 76.5921 5.57715C76.5624 5.5483 76.5263 5.52653 76.4867 5.5135C76.4471 5.50048 76.405 5.49654 76.3636 5.502H72.8911V4.15947C72.8911 3.05676 73.4666 2.39841 74.4308 2.39841C75.1531 2.39305 75.8576 2.61876 76.438 3.0415V3.0415C76.4969 3.08214 76.568 3.10229 76.6399 3.09876V3.09876C76.7862 3.09876 76.8845 2.9785 76.8845 2.80014V1.70814C76.8966 1.62342 76.8825 1.53707 76.8438 1.46042C76.8051 1.38377 76.7438 1.32042 76.6678 1.27869V1.27869C75.9544 0.860949 75.133 0.65601 74.3033 0.6888V0.6888C72.0628 0.6888 71.0609 2.48815 71.0609 4.15975L71.0605 4.15947ZM62.0512 2.2988C62.0525 2.49025 62.0922 2.67956 62.168 2.85593C62.2438 3.03229 62.3542 3.19225 62.4928 3.32668C62.6315 3.4611 62.7957 3.56735 62.9762 3.63937C63.1566 3.71139 63.3497 3.74776 63.5444 3.7464V3.7464C63.7391 3.74773 63.9322 3.71134 64.1126 3.63931C64.293 3.56728 64.4572 3.46102 64.5959 3.32659C64.7345 3.19217 64.8448 3.03222 64.9206 2.85587C64.9963 2.67952 65.036 2.49023 65.0374 2.2988V2.2988C65.036 2.1074 64.9963 1.91814 64.9205 1.74183C64.8447 1.56551 64.7344 1.4056 64.5958 1.27122C64.4571 1.13683 64.2929 1.03061 64.1126 0.958616C63.9322 0.886622 63.7391 0.850264 63.5444 0.85162V0.85162C63.3497 0.850237 63.1567 0.886572 62.9762 0.958553C62.7958 1.03053 62.6316 1.13675 62.4929 1.27113C62.3543 1.40552 62.2439 1.56544 62.1681 1.74177C62.0923 1.9181 62.0525 2.10738 62.0512 2.2988V2.2988ZM26.5319 2.2988C26.5332 2.49023 26.5729 2.67952 26.6487 2.85587C26.7244 3.03222 26.8348 3.19217 26.9734 3.32659C27.112 3.46102 27.2762 3.56728 27.4566 3.63931C27.637 3.71134 27.8301 3.74773 28.0248 3.7464V3.7464C28.2195 3.74776 28.4126 3.71139 28.5931 3.63937C28.7735 3.56735 28.9377 3.4611 29.0764 3.32667C29.2151 3.19225 29.3254 3.03229 29.4012 2.85592C29.477 2.67956 29.5167 2.49025 29.518 2.2988V2.2988C29.5166 2.10738 29.4769 1.9181 29.4011 1.74177C29.3253 1.56545 29.215 1.40552 29.0763 1.27114C28.9377 1.13675 28.7734 1.03054 28.593 0.958554C28.4126 0.886573 28.2195 0.850237 28.0248 0.85162V0.85162C27.8301 0.850264 27.6371 0.886622 27.4567 0.958616C27.2763 1.03061 27.1121 1.13683 26.9735 1.27122C26.8349 1.4056 26.7245 1.56551 26.6487 1.74183C26.573 1.91814 26.5333 2.1074 26.5319 2.2988V2.2988ZM38.4584 5.31328C37.2099 5.5885 36.0962 6.27882 35.3053 7.2677C34.5145 8.25658 34.0949 9.48346 34.1174 10.7412V10.7412C34.0825 12.1715 34.6265 13.557 35.6299 14.5932C36.6333 15.6294 38.014 16.2318 39.4688 16.2679V16.2679C40.7812 16.2648 42.0437 15.7729 43.0019 14.8912V16.1862C43.0019 18.2118 41.909 19.3273 39.924 19.3273C38.4223 19.3273 37.5052 18.7341 37.1971 17.5617C37.1556 17.4208 37.1164 17.288 36.8929 17.288H35.6606C35.6185 17.2828 35.5757 17.2872 35.5356 17.3009C35.4955 17.3145 35.4592 17.3371 35.4294 17.3669C35.3997 17.3966 35.3773 17.4328 35.3641 17.4724C35.3509 17.5121 35.3472 17.5542 35.3532 17.5955V17.5955C35.5573 19.6538 37.3944 21.0365 39.9243 21.0365C42.8709 21.0365 44.8504 19.1288 44.8504 16.2891V5.72236C44.8504 5.58539 44.7763 5.51691 44.6279 5.51691H43.2295C43.2019 5.51672 43.1745 5.52188 43.1489 5.5321C43.1233 5.54233 43.1 5.55741 43.0804 5.5765C43.0607 5.59558 43.0451 5.61828 43.0344 5.64331C43.0236 5.66834 43.0181 5.6952 43.0179 5.72236V5.72236V6.60618C42.3198 5.96193 41.4554 5.51804 40.5188 5.32273V5.32273C40.4952 5.3174 40.4707 5.31733 40.4471 5.32251C40.4235 5.32769 40.4014 5.338 40.3824 5.35267C40.3633 5.36735 40.3479 5.38603 40.3372 5.40734C40.3264 5.42865 40.3207 5.45205 40.3203 5.47582V7.07336C40.3207 7.10802 40.3327 7.14159 40.3545 7.16888C40.3762 7.19617 40.4065 7.21566 40.4406 7.22435V7.22435C41.2163 7.45449 41.8945 7.92719 42.3721 8.57068C42.8497 9.21417 43.1007 9.99331 43.087 10.7898V10.7898C43.1124 11.742 42.7524 12.6651 42.0861 13.3566C41.4198 14.048 40.5016 14.4513 39.5332 14.4777V14.4777C38.5647 14.4513 37.6465 14.0481 36.9801 13.3566C36.3138 12.6652 35.9538 11.742 35.9793 10.7898V10.7898C35.9665 10.0093 36.2072 9.24513 36.6666 8.60843C37.126 7.97174 37.7799 7.49572 38.5334 7.24962V7.24962C38.5665 7.24016 38.5956 7.22051 38.6165 7.19355C38.6374 7.16659 38.6489 7.13376 38.6494 7.09989V7.09989V5.46756C38.6491 5.42597 38.6323 5.38614 38.6024 5.35668C38.5726 5.32723 38.5321 5.31053 38.4898 5.3102V5.3102C38.4792 5.31017 38.4685 5.3112 38.4581 5.31328H38.4584ZM6.90925 8.37298C6.90925 10.1949 7.89074 11.103 10.2961 11.5058L10.3632 11.517C12.008 11.7995 13.197 12.004 13.197 13.1515C13.197 14.1257 12.0319 14.5695 10.949 14.5695C9.60545 14.5695 8.77625 13.9443 8.61456 12.8096C8.5942 12.6718 8.543 12.5303 8.31502 12.5303H6.95539C6.91535 12.5269 6.87505 12.5321 6.83726 12.5455C6.79947 12.5589 6.76509 12.5802 6.7365 12.608C6.7079 12.6357 6.68577 12.6693 6.67164 12.7062C6.65751 12.7432 6.65171 12.7828 6.65464 12.8222V12.8222C6.65464 14.8489 8.39434 16.2645 10.8848 16.2645C13.3758 16.2645 15.1155 14.8995 15.1155 12.9457C15.1155 10.807 13.1696 10.3137 11.3456 10.0187C9.05842 9.65258 8.74315 9.01124 8.74315 8.37298C8.74315 7.38752 9.81699 7.0378 10.7367 7.0378C11.9894 7.0378 12.7402 7.50162 12.9672 8.41743C13.0077 8.55533 13.046 8.68532 13.2642 8.68532H14.4536C14.4936 8.68875 14.534 8.68361 14.5718 8.67023C14.6096 8.65685 14.644 8.63556 14.6726 8.60784C14.7012 8.58011 14.7234 8.5466 14.7376 8.50963C14.7518 8.47266 14.7576 8.43311 14.7547 8.3937V8.3937C14.7547 6.56845 13.1308 5.34219 10.7148 5.34219C8.10007 5.34219 6.90918 6.91327 6.90918 8.37319L6.90925 8.37298ZM49.5472 6.72763V5.79327C49.5511 5.76515 49.5483 5.73653 49.539 5.70967C49.5296 5.68281 49.5141 5.65846 49.4935 5.63855C49.4729 5.61864 49.4479 5.60371 49.4205 5.59495C49.393 5.5862 49.3639 5.58385 49.3353 5.5881H47.9375C47.789 5.5881 47.7148 5.65649 47.7149 5.79327V15.9473C47.7149 16.0843 47.7891 16.1527 47.9375 16.1525H49.3353C49.3639 16.1568 49.393 16.1544 49.4205 16.1457C49.448 16.1369 49.473 16.122 49.4935 16.1021C49.5141 16.0822 49.5297 16.0578 49.539 16.0309C49.5483 16.0041 49.5511 15.9755 49.5472 15.9473V15.9473V9.71313C49.5464 9.3723 49.616 9.03487 49.7519 8.72132C49.8878 8.40778 50.0871 8.12467 50.3378 7.88921C50.5884 7.65375 50.8851 7.47086 51.2099 7.35164C51.5347 7.23243 51.8807 7.17938 52.227 7.19572C52.5733 7.17929 52.9194 7.23227 53.2442 7.35145C53.569 7.47063 53.8658 7.65352 54.1165 7.88899C54.3672 8.12446 54.5666 8.4076 54.7025 8.72119C54.8384 9.03477 54.908 9.37226 54.9071 9.71313V9.71313V15.9473H54.9064C54.9044 15.976 54.9088 16.0047 54.9195 16.0315C54.9302 16.0582 54.9468 16.0823 54.9681 16.102C54.9894 16.1216 55.0149 16.1364 55.0428 16.1451C55.0706 16.1538 55.1001 16.1564 55.129 16.1525H56.5328C56.5613 16.1567 56.5905 16.1544 56.6179 16.1456C56.6454 16.1368 56.6703 16.1219 56.6909 16.102C56.7115 16.0821 56.727 16.0577 56.7364 16.0309C56.7457 16.0041 56.7486 15.9754 56.7447 15.9473V9.68149L56.7435 9.68058C56.7497 8.56853 56.3169 7.49748 55.536 6.69291V6.69291C54.6575 5.86293 53.4831 5.40446 52.2647 5.41583C51.7365 5.39474 51.2113 5.50367 50.7367 5.73275C50.2622 5.96184 49.8533 6.30381 49.5473 6.72763H49.5472ZM87.4229 5.45083C87.3482 5.43914 87.2717 5.4552 87.2083 5.49587C87.145 5.53655 87.0993 5.59894 87.0801 5.67091V5.67091L87.0795 5.67147L83.9799 13.5791L80.7835 5.71928C80.71 5.52783 80.6228 5.45083 80.4225 5.45083H79.0944C79.0602 5.44866 79.0259 5.45363 78.9938 5.46541C78.9617 5.47719 78.9325 5.49551 78.9082 5.51917C78.8838 5.54284 78.8648 5.5713 78.8524 5.6027C78.84 5.6341 78.8345 5.66772 78.8363 5.70136V5.70136C78.8374 5.75295 78.8482 5.80389 78.868 5.85165V5.85165L78.8705 5.85718L83.0058 16.0632L82.6479 16.9704C82.4635 17.4814 82.2318 17.9746 81.9556 18.4439V18.4439C81.7918 18.7023 81.552 18.9058 81.268 19.0273C81.1034 19.1086 80.9216 19.1506 80.7374 19.15V19.15C80.6628 19.15 80.5883 19.143 80.5151 19.129V19.129C80.2373 19.0703 79.9645 18.9912 79.6988 18.8922V18.8922C79.5659 18.8256 79.4226 18.7811 79.2749 18.7607V18.7607C79.239 18.7588 79.2032 18.7645 79.1699 18.7776C79.1365 18.7907 79.1065 18.8107 79.0819 18.8364C79.0572 18.862 79.0385 18.8926 79.0271 18.9261C79.0157 18.9595 79.0119 18.995 79.0158 19.0301V19.0301V20.1942V20.2007C79.0124 20.2863 79.036 20.3708 79.0834 20.4427C79.1308 20.5145 79.1996 20.5702 79.2805 20.6021C79.7817 20.838 80.3328 20.9536 80.8883 20.9393V20.9393C81.4058 20.9079 81.9069 20.749 82.3455 20.4773V20.4773C82.8213 20.1903 83.2271 19.804 83.5342 19.3457V19.3457C83.6918 19.1155 83.8312 18.8737 83.9511 18.6225V18.6225C84.2111 18.0844 88.1536 8.00156 88.9741 5.85214C88.9931 5.79705 89.0019 5.73906 89 5.68092V5.68092C89.0014 5.64829 88.9955 5.61575 88.9827 5.58562C88.9699 5.55548 88.9505 5.52847 88.926 5.50652C88.9014 5.48456 88.8722 5.46819 88.8404 5.45857C88.8087 5.44895 88.7752 5.4463 88.7423 5.45083H87.4229V5.45083ZM60.1586 5.50165C60.0097 5.50165 59.9357 5.57046 59.9357 5.70773V7.07644C59.9336 7.10515 59.938 7.13397 59.9487 7.16078C59.9593 7.18759 59.976 7.21172 59.9973 7.23141C60.0187 7.2511 60.0442 7.26584 60.0721 7.27458C60.1 7.28331 60.1296 7.28581 60.1586 7.28189H62.5039V14.2873H59.6173C59.4687 14.2943 59.3944 14.3664 59.3943 14.5034V15.8606C59.3943 15.9979 59.4686 16.0666 59.6173 16.0667H67.5703C67.7185 16.0667 67.7926 15.998 67.7926 15.8606V14.5034C67.7955 14.4741 67.7917 14.4446 67.7816 14.4169C67.7714 14.3892 67.7551 14.3641 67.7338 14.3434C67.7125 14.3227 67.6867 14.3069 67.6585 14.2972C67.6302 14.2875 67.6001 14.2841 67.5703 14.2873H64.3382V5.7078C64.3402 5.67906 64.3356 5.65025 64.3249 5.62344C64.3142 5.59663 64.2975 5.5725 64.2762 5.55278C64.2548 5.53307 64.2293 5.51826 64.2014 5.50943C64.1735 5.5006 64.1439 5.49797 64.1149 5.50172H60.1586V5.50165ZM24.6389 5.50165C24.4904 5.50165 24.4162 5.57034 24.4163 5.70773V7.07644C24.4142 7.10512 24.4186 7.13391 24.4293 7.1607C24.4399 7.18748 24.4565 7.2116 24.4778 7.23128C24.4992 7.25097 24.5247 7.26573 24.5526 7.27448C24.5804 7.28323 24.6099 7.28577 24.6389 7.28189H26.9843V14.2873H24.0979C23.9495 14.2943 23.8752 14.3664 23.8751 14.5034V15.8606C23.8751 15.9979 23.9494 16.0666 24.0979 16.0667H32.0505C32.1988 16.0667 32.2735 15.9979 32.2735 15.8606V14.5034C32.2763 14.4741 32.2724 14.4445 32.2622 14.4168C32.2519 14.3891 32.2356 14.364 32.2142 14.3433C32.1929 14.3226 32.1671 14.3069 32.1388 14.2972C32.1105 14.2875 32.0803 14.2842 32.0505 14.2873H28.8186V5.7078C28.8206 5.67908 28.8161 5.65027 28.8054 5.62346C28.7947 5.59665 28.7781 5.57251 28.7568 5.55279C28.7355 5.53306 28.7099 5.51825 28.6821 5.50942C28.6542 5.50059 28.6247 5.49796 28.5956 5.50172H24.6389V5.50165Z"
    fill="url(#paint0_linear_899_66249)" />
  <defs>
    <linearGradient gradientUnits="userSpaceOnUse" id="paint0_linear_899_66249" x1="0" x2="89.0002" y1="10.9997"
                    y2="10.9997">
      <stop offset="0.587157" stop-color="#00E487" />
      <stop offset="1" stop-color="#1ECBD0" />
    </linearGradient>
  </defs>
</svg>
